<?xml version="1.0" encoding="utf-8"?>
<!-- Generator: Adobe Illustrator 19.2.1, SVG Export Plug-In . SVG Version: 6.00 Build 0)  -->
<svg version="1.1" id="Layer_1" xmlns="http://www.w3.org/2000/svg" xmlns:xlink="http://www.w3.org/1999/xlink" x="0px" y="0px"
	 viewBox="0 0 200 200" style="enable-background:new 0 0 200 200;" xml:space="preserve">
<style type="text/css">
	.st0{fill:#231F20;}
	.st1{fill:#2F2C30;}
	.st2{fill:#010101;}
</style>
<g>
	<g>
		<path d="M63.9,46.4h-1.8V48h2v0.5h-2.6v-4.5H64v0.5h-1.9v1.4h1.8V46.4z"/>
		<path d="M66.1,47.8c0.3,0.2,0.6,0.3,1,0.3c0.6,0,0.9-0.3,0.9-0.8c0-0.4-0.2-0.7-0.9-0.9c-0.7-0.3-1.2-0.6-1.2-1.3
			c0-0.7,0.6-1.2,1.5-1.2c0.5,0,0.8,0.1,1,0.2l-0.2,0.5c-0.1-0.1-0.5-0.2-0.9-0.2c-0.6,0-0.9,0.4-0.9,0.7c0,0.4,0.3,0.6,0.9,0.9
			c0.8,0.3,1.2,0.7,1.2,1.3c0,0.7-0.5,1.3-1.6,1.3c-0.4,0-0.9-0.1-1.2-0.3L66.1,47.8z"/>
		<path d="M71.7,44.4h-1.4v-0.5h3.4v0.5h-1.4v4h-0.6V44.4z"/>
		<path d="M75.5,44c0.4-0.1,0.8-0.1,1.2-0.1c0.8,0,1.4,0.2,1.8,0.6c0.4,0.4,0.6,0.9,0.6,1.6c0,0.7-0.2,1.3-0.7,1.8
			c-0.4,0.4-1.1,0.7-2,0.7c-0.4,0-0.8,0-1.1-0.1V44z M76.1,48c0.1,0,0.4,0,0.6,0c1.3,0,1.9-0.7,1.9-1.9c0-1.1-0.6-1.8-1.8-1.8
			c-0.3,0-0.5,0-0.7,0.1V48z"/>
	</g>
</g>
<g>
	<g>
		<path d="M121.9,48.5v-0.4l0.5-0.5c1.1-1.1,1.6-1.6,1.6-2.3c0-0.4-0.2-0.9-0.9-0.9c-0.4,0-0.7,0.2-0.9,0.4l-0.2-0.4
			c0.3-0.3,0.7-0.4,1.2-0.4c0.9,0,1.3,0.6,1.3,1.3c0,0.8-0.6,1.5-1.5,2.3l-0.3,0.3v0h2v0.5H121.9z"/>
		<path d="M129.6,46.2c0,1.5-0.6,2.3-1.5,2.3c-0.9,0-1.4-0.8-1.4-2.2c0-1.5,0.6-2.3,1.5-2.3C129.1,44,129.6,44.9,129.6,46.2z
			 M127.2,46.3c0,1.1,0.4,1.8,0.9,1.8c0.6,0,0.9-0.7,0.9-1.8c0-1.1-0.3-1.8-0.9-1.8C127.6,44.5,127.2,45.1,127.2,46.3z"/>
		<path d="M132.8,44.7L132.8,44.7l-0.8,0.4l-0.1-0.5l1-0.5h0.5v4.4h-0.6V44.7z"/>
		<path d="M136.4,47.8c0.2,0.1,0.6,0.3,1,0.3c0.8,0,1-0.5,1-0.8c0-0.6-0.6-0.9-1.1-0.9h-0.3v-0.4h0.3c0.4,0,1-0.2,1-0.7
			c0-0.4-0.2-0.7-0.8-0.7c-0.3,0-0.7,0.2-0.9,0.3l-0.2-0.4c0.2-0.2,0.7-0.3,1.1-0.3c0.9,0,1.3,0.5,1.3,1c0,0.5-0.3,0.8-0.8,1v0
			c0.5,0.1,1,0.5,1,1.1c0,0.7-0.5,1.3-1.6,1.3c-0.5,0-0.9-0.2-1.1-0.3L136.4,47.8z"/>
	</g>
</g>
<g>
	<g>
		<path d="M76.7,153.9c-0.2,0-0.6,0-1-0.1c-1-0.3-1.4-1.1-1.1-2c0.3-0.9,1.2-1.4,2.2-1.1c0.3,0.1,0.6,0.3,0.7,0.4
			c-0.1,0.1-0.2,0.3-0.3,0.4c-0.1-0.1-0.3-0.2-0.6-0.3c-0.7-0.2-1.3,0.2-1.5,0.8c-0.2,0.7,0.1,1.3,0.8,1.5c0.3,0.1,0.6,0.1,0.8,0.1
			C76.7,153.6,76.7,153.7,76.7,153.9z"/>
		<path d="M82.4,153.8c-0.2,1.1-1.2,1.4-2,1.3c-0.9-0.2-1.4-1-1.2-2c0.3-1,1.1-1.4,2-1.2C82.1,152.1,82.6,152.9,82.4,153.8z
			 M79.8,153.2c-0.2,0.7,0.1,1.3,0.7,1.4c0.6,0.1,1.1-0.3,1.3-1c0.1-0.5,0-1.2-0.7-1.4C80.4,152.1,79.9,152.6,79.8,153.2z"/>
		<path d="M88.1,151.8c-0.2,1.3-0.4,2.5-0.6,3.8c0,0.3-0.1,0.6-0.1,0.8c-0.2,0-0.4-0.1-0.5-0.1c0-0.2,0-0.4,0.1-0.5c0,0,0,0,0,0
			c-0.2,0.3-0.7,0.5-1.2,0.4c-0.8-0.1-1.3-0.9-1.1-1.8c0.2-1,1-1.5,1.8-1.4c0.5,0.1,0.8,0.4,0.9,0.6c0,0,0,0,0,0
			c0.1-0.6,0.2-1.2,0.3-1.9C87.7,151.7,87.9,151.8,88.1,151.8z M87.1,154.4c0-0.1,0-0.2,0-0.2c0-0.4-0.3-0.7-0.7-0.8
			c-0.6-0.1-1.1,0.3-1.2,1c-0.1,0.6,0.1,1.2,0.8,1.3c0.4,0.1,0.8-0.1,1-0.5c0-0.1,0.1-0.2,0.1-0.2C87,154.8,87,154.6,87.1,154.4z"/>
		<path d="M90.6,155.3c-0.1,0.8,0.4,1.1,1,1.2c0.4,0,0.7,0,0.9-0.1c0,0.1,0,0.3,0.1,0.4c-0.2,0.1-0.6,0.1-1.1,0.1
			c-1-0.1-1.6-0.8-1.5-1.8c0.1-0.9,0.8-1.6,1.7-1.5c1.1,0.1,1.3,1,1.2,1.6c0,0.1,0,0.2,0,0.3C92.2,155.5,91.4,155.4,90.6,155.3z
			 M92.4,155.1c0-0.4-0.1-0.9-0.7-1c-0.6-0.1-0.9,0.4-1,0.8C91.2,154.9,91.8,155,92.4,155.1z"/>
		<path d="M101.5,157.2c-0.1-0.1-0.3-0.2-0.4-0.4c-0.4,0.4-0.8,0.5-1.4,0.5c-0.9,0-1.4-0.6-1.4-1.2c0-0.6,0.4-1,0.9-1.3c0,0,0,0,0,0
			c-0.2-0.3-0.4-0.6-0.4-0.9c0-0.5,0.4-1.1,1.1-1.1c0.6,0,1,0.4,1,0.9c0,0.5-0.3,0.8-1,1.2c0,0,0,0,0,0c0.4,0.4,0.8,0.9,1.1,1.2
			c0.2-0.3,0.3-0.7,0.4-1.3c0.2,0,0.4,0,0.5,0c-0.1,0.7-0.3,1.2-0.6,1.6c0.3,0.2,0.5,0.5,0.8,0.8C102,157.2,101.8,157.2,101.5,157.2
			z M100.8,156.5c-0.3-0.3-0.8-0.8-1.3-1.4c-0.2,0.1-0.6,0.4-0.6,0.9c0,0.5,0.4,0.9,0.9,0.9C100.2,156.9,100.5,156.7,100.8,156.5z
			 M99.4,153.8c0,0.3,0.1,0.6,0.3,0.8c0.5-0.3,0.8-0.5,0.7-0.9c0-0.3-0.2-0.6-0.5-0.6C99.6,153.2,99.4,153.5,99.4,153.8z"/>
		<path d="M107.7,156.9c0-0.2,0-0.5-0.1-0.8c-0.1-1.3-0.2-2.5-0.4-3.8c0.2,0,0.4,0,0.6-0.1c0.1,0.7,0.1,1.3,0.2,2c0,0,0,0,0,0
			c0.2-0.4,0.5-0.6,1-0.7c0.8-0.1,1.5,0.5,1.6,1.4c0.2,1.1-0.5,1.8-1.3,1.9c-0.5,0.1-0.9-0.1-1.2-0.5c0,0,0,0,0,0c0,0.2,0,0.3,0,0.5
			C108,156.8,107.9,156.9,107.7,156.9z M108.2,155.6c0,0.1,0,0.1,0,0.2c0.2,0.4,0.5,0.6,1,0.6c0.6-0.1,1-0.6,0.9-1.3
			c-0.1-0.6-0.5-1.1-1.1-1c-0.4,0-0.7,0.4-0.8,0.8c0,0.1,0,0.1,0,0.2C108.2,155.2,108.2,155.4,108.2,155.6z"/>
		<path d="M113.5,154.6c0.1,0.8,0.7,1,1.3,0.9c0.4-0.1,0.7-0.2,0.9-0.3c0.1,0.1,0.1,0.3,0.2,0.4c-0.2,0.1-0.5,0.3-1.1,0.4
			c-1,0.2-1.7-0.3-1.9-1.3c-0.2-0.9,0.3-1.8,1.2-1.9c1-0.2,1.5,0.6,1.6,1.2c0,0.1,0,0.2,0,0.3C115,154.3,114.2,154.5,113.5,154.6z
			 M115.1,153.9c-0.1-0.4-0.3-0.9-1-0.8c-0.6,0.1-0.8,0.7-0.7,1.1C114,154.1,114.6,154,115.1,153.9z"/>
		<path d="M118.5,153.6c0.2,0.7,0.8,0.9,1.4,0.8c0.4-0.1,0.7-0.2,0.9-0.4c0.1,0.1,0.1,0.2,0.2,0.4c-0.2,0.1-0.5,0.3-1,0.5
			c-1,0.3-1.8-0.2-2-1.2c-0.2-0.9,0.2-1.8,1.1-2c1-0.3,1.5,0.5,1.7,1.1c0,0.1,0,0.2,0,0.3C120.1,153.2,119.3,153.4,118.5,153.6z
			 M120.2,152.7c-0.1-0.4-0.4-0.9-1-0.7c-0.6,0.1-0.7,0.7-0.7,1.1C119,153,119.6,152.9,120.2,152.7z"/>
		<path d="M123,151.6c-0.1-0.4-0.2-0.7-0.3-0.9c0.2-0.1,0.3-0.1,0.5-0.2c0.1,0.2,0.1,0.4,0.2,0.6c0,0,0,0,0,0c0-0.4,0.3-0.8,0.7-0.9
			c0.1,0,0.1,0,0.2,0c0.1,0.2,0.1,0.3,0.2,0.5c-0.1,0-0.1,0-0.2,0c-0.4,0.1-0.6,0.5-0.5,0.9c0,0.1,0,0.2,0.1,0.3
			c0.2,0.5,0.3,1.1,0.5,1.6c-0.2,0.1-0.4,0.1-0.6,0.2C123.4,153,123.2,152.3,123,151.6z"/>
	</g>
</g>
<g>
	<path d="M60.2,130.5c-0.6,0-0.9-0.3-0.9-0.9c0-0.3,0.1-0.5,0.3-0.8c0.3-0.4,0.6-0.6,1-0.6h4.3c0.6,0,0.9,0.3,0.9,1
		c0,0.2-0.1,0.5-0.4,0.8c-0.3,0.4-0.6,0.5-1,0.5H60.2z"/>
	<path d="M88.6,118.3c1.2-0.6,1.8-1,2.1-1.1c0.6-0.2,1-0.2,1.1-0.1c0.1,0.1,0.1,0.1,0.1,0.2c0,0.2-0.2,0.4-0.7,0.7
		c-0.2,0.1-0.5,0.3-0.9,0.6c1.1,0.4,2,1.1,2.8,2.2c0.3,0.4,0.4,1,0.4,1.7c0,1.1-0.2,1.9-0.7,2.5c-0.6,0.7-1.3,1.3-2.2,1.8
		c0.5,0.5,0.9,1,1.1,1.4c0.2,0.5,0.3,1.1,0.3,1.7c0,1-0.3,2.2-0.9,3.5c-0.4,1-1.2,1.7-2.3,2.4c-1.1,0.6-2.2,0.9-3.3,0.9
		c-0.8,0-1.5-0.2-2-0.6c-1-0.7-1.6-1.5-1.8-2.4c-1.2,1.5-2.4,2.4-3.7,2.9c-0.7,0.2-1.5,0.4-2.6,0.4c-0.7,0-1.5-0.2-2.2-0.5
		c-0.8-0.3-1.4-0.8-1.8-1.3c-0.6-0.8-0.9-1.7-0.9-2.6c0-1.2,0.5-2.2,1.5-2.9c0.4-0.3,0.8-0.4,1.3-0.4c0.5,0,0.9,0.2,1.3,0.5
		s0.5,0.7,0.5,1.2c0,0.6-0.2,1-0.7,1.3c-0.8,0.5-1.2,1-1.2,1.5c0,0.2,0.1,0.4,0.2,0.6c0.2,0.4,0.6,0.5,1.2,0.5
		c0.4,0,0.9-0.1,1.4-0.4c0.9-0.5,1.7-1.2,2.4-2.1c0.4-0.6,1.1-1.7,2-3.4c1.1-2,2.1-3.7,3-5c1.2-1.8,2.3-3.2,3.5-4.4
		c-0.4-0.1-0.9-0.1-1.3-0.1c-1,0-2.1,0.2-3.1,0.7c-1.5,0.7-2.7,1.4-3.4,2.2c-0.6,0.7-1.1,1.6-1.3,2.6c0,0.2-0.1,0.5-0.1,0.7
		c0,1,0.5,1.6,1.4,1.9c0.5,0.1,0.7,0.4,0.7,0.7c0,0.5-0.2,0.8-0.7,0.9c-0.1,0-0.3,0.1-0.4,0.1c-0.6,0-1.2-0.3-1.6-0.9
		c-0.5-0.7-0.7-1.5-0.7-2.3c0-0.5,0.1-1.3,0.4-2.4c0.3-1.1,1.2-2.2,2.8-3.4c1.9-1.4,3.9-2.1,6.1-2.1
		C86.9,118.2,87.8,118.2,88.6,118.3z M88.8,120.2c-0.3,0.3-0.7,0.7-1.1,1.2c-0.5,0.6-1,1.7-1.5,3.3c-0.7,2.1-1.3,3.7-1.8,4.7
		c0.6-0.3,1-0.4,1.3-0.5c0.1,0,0.3,0,0.4,0c0.3,0,0.5,0.2,0.5,0.5s-0.2,0.5-0.7,0.6c-0.6,0.1-1.3,0.5-2.1,1.3
		c-0.5,0.5-0.7,1-0.7,1.7c0,0.4,0.1,0.7,0.3,0.9c0.5,0.5,1,0.7,1.5,0.7c0.6,0,1.2-0.3,1.9-1c0.3-0.3,0.7-0.9,1-1.5
		c0.4-0.9,0.6-1.7,0.6-2.4c0-0.2,0-0.3,0-0.5c-0.1-0.8-0.4-1.3-0.7-1.5c0,0-0.4-0.1-1.1-0.2c-0.4,0-0.7-0.2-0.7-0.7
		c0-0.5,0.3-0.8,0.9-0.9c0.5,0,1,0,1.5-0.1c1-0.1,1.7-1,2.1-2.5c0-0.2,0.1-0.4,0.1-0.6c0-0.9-0.3-1.6-1-2
		C89.3,120.4,89,120.3,88.8,120.2z"/>
	<path d="M97,133.5c-0.1,0.9,0.2,1.3,0.9,1.3c0.4,0,1-0.2,1.7-0.6c0.6-0.4,1.1-0.8,1.6-1.3c0.6-0.6,1-1,1.2-1.2
		c0.2-0.1,0.3-0.2,0.4-0.2c0.1,0,0.3,0.1,0.5,0.2c0.1,0.1,0.1,0.1,0.1,0.2c0,0.3-0.5,1-1.6,2c-2,1.9-3.9,2.8-5.5,2.8
		c-0.5,0-1-0.1-1.4-0.3c-0.5-0.3-0.9-0.8-1.2-1.4c-0.2-0.5-0.3-1-0.3-1.3c0.1-0.4,0.1-0.6,0.1-0.8c0.1-0.2,0.3-0.5,0.5-0.7
		c-0.4,0.4-0.7,0.6-0.9,0.6c-0.1,0-0.3-0.1-0.4-0.2s-0.2-0.3-0.2-0.4c0-0.2,0.2-0.4,0.5-0.6c0.2-0.1,0.7-0.7,1.6-1.7
		c0.9-1,1.8-1.9,2.7-2.5c1.3-1,2.4-1.5,3.4-1.5c0.7,0,1.2,0.2,1.6,0.6c0.4,0.4,0.7,0.9,0.7,1.4c0,0.7-0.5,1.6-1.4,2.6
		C100.1,132.1,98.7,133,97,133.5z M98.6,131.2c0.2,0,0.8-0.4,1.6-1.3c0.5-0.5,0.7-1.1,0.7-1.6c0-0.2-0.1-0.4-0.3-0.4
		c-0.3,0-0.8,0.5-1.6,1.5c-0.5,0.6-0.8,1.1-0.8,1.5C98.2,131.1,98.3,131.2,98.6,131.2z"/>
	<path d="M106.5,133.5c-0.1,0.9,0.2,1.3,0.9,1.3c0.4,0,1-0.2,1.7-0.6c0.6-0.4,1.1-0.8,1.6-1.3c0.6-0.6,1-1,1.2-1.2
		c0.2-0.1,0.3-0.2,0.4-0.2c0.1,0,0.3,0.1,0.5,0.2c0.1,0.1,0.1,0.1,0.1,0.2c0,0.3-0.5,1-1.6,2c-2,1.9-3.9,2.8-5.5,2.8
		c-0.5,0-1-0.1-1.4-0.3c-0.5-0.3-0.9-0.8-1.2-1.4c-0.2-0.5-0.3-1-0.3-1.3c0.1-0.4,0.1-0.6,0.1-0.8c0.1-0.2,0.3-0.5,0.5-0.7
		c-0.4,0.4-0.7,0.6-0.9,0.6c-0.1,0-0.3-0.1-0.4-0.2s-0.2-0.3-0.2-0.4c0-0.2,0.2-0.4,0.5-0.6c0.2-0.1,0.7-0.7,1.6-1.7
		c0.9-1,1.8-1.9,2.7-2.5c1.3-1,2.4-1.5,3.4-1.5c0.7,0,1.2,0.2,1.6,0.6c0.4,0.4,0.7,0.9,0.7,1.4c0,0.7-0.5,1.6-1.4,2.6
		C109.6,132.1,108.2,133,106.5,133.5z M108.1,131.2c0.2,0,0.8-0.4,1.6-1.3c0.5-0.5,0.7-1.1,0.7-1.6c0-0.2-0.1-0.4-0.3-0.4
		c-0.3,0-0.8,0.5-1.6,1.5c-0.5,0.6-0.8,1.1-0.8,1.5C107.7,131.1,107.8,131.2,108.1,131.2z"/>
	<path d="M114.8,127.9c-0.4-0.3-0.5-0.7-0.5-1.1c0-0.4,0.1-0.8,0.4-1.2c0.4-0.7,1-1.1,1.7-1.1c0.3,0,0.5,0.1,0.7,0.2
		c0.2,0.2,0.3,0.4,0.3,0.7c0,0.3-0.1,0.7-0.3,1.1c0.4,0.2,1,0.2,1.8,0c0.7-0.2,1.2-0.3,1.5-0.3c0.4,0,0.7,0.2,0.7,0.5
		c0,0.1,0,0.2,0,0.4c0,0.3-0.1,0.6-0.2,0.9c-0.2,0.3-0.3,0.6-0.5,0.9c-0.5,1.1-1.1,2.4-1.7,3.8c-0.2,0.5-0.2,0.8,0,0.9
		c0.3,0,0.5-0.1,0.7-0.4c0.4-0.3,0.8-0.8,1.4-1.4c0.2-0.2,0.4-0.3,0.6-0.3c0.2,0,0.3,0,0.3,0.1c0.1,0.1,0.2,0.2,0.2,0.3
		c0,0.1-0.1,0.3-0.4,0.7c-1.5,1.8-3,3.1-4.6,3.9c-0.4,0.2-0.9,0.3-1.3,0.3c-0.6,0-1.1-0.2-1.4-0.6c-0.4-0.4-0.5-0.9-0.5-1.3
		c0.1-1,0.9-2.4,2.4-4.3c0.6-0.7,0.9-1.3,0.9-1.7c0-0.4-0.3-0.6-1-0.6c-1.7,2.2-2.9,3.7-3.6,4.4c-0.3,0.3-0.5,0.3-0.8,0.1
		c-0.1-0.1-0.2-0.2-0.2-0.3c0-0.1,0.1-0.3,0.2-0.4c0.7-0.8,1.2-1.4,1.6-1.8C113.8,129.4,114.4,128.7,114.8,127.9z"/>
	<path d="M128.6,132.4c0.3-0.1,0.6-0.4,0.9-0.7c0.2-0.2,0.4-0.3,0.7-0.3c0.3,0,0.5,0.2,0.5,0.5c0,0.1-0.1,0.4-0.4,0.7
		c-0.5,0.6-1.1,0.9-1.9,1.1c-0.4,1.2-1.1,2-2,2.6c-0.6,0.4-1.3,0.5-1.9,0.5c-1.5,0-2.4-0.4-2.9-1.1c-0.3-0.5-0.4-0.9-0.4-1.4
		c0-0.8,0.3-1.3,0.9-1.6c0.5-0.2,1-0.4,1.5-0.4c0.3,0,0.8,0.1,1.7,0.2c0.1-0.4,0.1-1.1,0.1-2.1c0-0.9,0-1.5,0.2-2
		c-0.5,0.3-1.2,1-2.1,2.1c-1.2,1.4-1.9,2.2-2,2.3c-0.3,0.3-0.6,0.3-0.8,0.1c-0.3-0.2-0.3-0.4,0-0.7c0.7-0.9,2-2.3,3.7-4.2
		c0.7-0.7,1.5-1.4,2.3-1.8c0.8-0.5,1.5-0.7,2.1-0.7c1,0,1.6,0.4,1.6,1.3c0,0.3-0.1,0.6-0.4,0.9s-0.5,0.4-0.8,0.4c-0.1,0-0.2,0-0.2,0
		c-0.5-0.1-0.8-0.1-1,0.1c-0.2,0.2-0.3,0.4-0.3,0.6c0,0.2,0.1,0.6,0.3,1.3c0,0.1,0.2,0.5,0.5,1.3C128.5,131.6,128.6,132,128.6,132.4
		z M124.9,133.5c-1-0.1-1.6-0.1-1.8,0c-0.2,0.2-0.4,0.3-0.4,0.6c0,0.3,0.1,0.5,0.4,0.7c0.1,0,0.2,0.1,0.3,0.1
		C124,134.7,124.5,134.3,124.9,133.5z"/>
	<path d="M137.4,130.5c-0.6,0-0.9-0.3-0.9-0.9c0-0.3,0.1-0.5,0.3-0.8c0.3-0.4,0.6-0.6,1-0.6h4.3c0.6,0,0.9,0.3,0.9,1
		c0,0.2-0.1,0.5-0.4,0.8c-0.3,0.4-0.6,0.5-1,0.5H137.4z"/>
</g>
<g>
	<g>
		<polygon class="st0" points="174.6,63.4 172.6,63.4 172.6,27.4 28,27.4 28,63.4 26,63.4 26,25.4 174.6,25.4 		"/>
	</g>
	<g>
		<polygon class="st0" points="174.6,174 26,174 26,117.7 28,117.7 28,172 172.6,172 172.6,117.7 174.6,117.7 		"/>
	</g>
</g>
<g>
	<path class="st1" d="M105.8,49.9c-0.3-0.3-0.6-0.7-0.8-1.1l-7.7,7.7c-0.1,0.1-0.3,0.2-0.4,0.2s-0.3-0.1-0.4-0.2
		c-0.2-0.2-0.2-0.6,0-0.8l7.4-7.4c-0.6-0.2-1.2-0.5-1.7-0.9l-7,7c-0.1,0.1-0.3,0.2-0.4,0.2s-0.3-0.1-0.4-0.2c-0.2-0.2-0.2-0.6,0-0.8
		l7-7c-0.4-0.5-0.7-1.1-0.9-1.7l-7.4,7.4c-0.1,0.1-0.3,0.2-0.4,0.2s-0.3-0.1-0.4-0.2c-0.2-0.2-0.2-0.6,0-0.8l7.7-7.7
		c-0.4-0.2-0.7-0.5-1.1-0.8c-0.7-0.7-1.1-1.5-1.2-2.4l-0.9-0.9c-0.6-0.6-1.5-0.6-2.1,0l-5.4,5.4c-0.6,0.6-0.6,1.5,0,2.1l1.8,1.8
		l-1.6,1.6c-0.8,0.8-0.8,2,0,2.8l6,6c0.8,0.8,2,0.8,2.8,0l8.6-8.6C106.5,50.5,106.1,50.3,105.8,49.9z M91.6,45.5l3.5-3.5
		c0.4-0.4,1-0.4,1.3,0l0.8,0.8l-4.8,4.8l-0.8-0.8C91.3,46.4,91.3,45.9,91.6,45.5z"/>
	<path class="st1" d="M101.5,43.1c-0.1,1.1,0.2,2.3,1.1,3.1c0.8,0.8,2,1.2,3.1,1.1c0.1,0.7,0.4,1.3,0.9,1.8c1.2,1.2,3.1,1.2,4.3,0
		c1.2-1.2,1.2-3.1,0-4.3c-0.5-0.5-1.1-0.8-1.8-0.9c0.1-1.1-0.2-2.3-1.1-3.1c-0.8-0.8-2-1.2-3.1-1.1c-0.1-0.7-0.4-1.3-0.9-1.8
		c-1.2-1.2-3.1-1.2-4.3,0c-1.2,1.2-1.2,3.1,0,4.3C100.2,42.7,100.8,43,101.5,43.1z"/>
	<path class="st1" d="M110.9,56.4c-0.3-1.3-1.6-3.2-2.2-4.1c-0.6,0.8-1.7,2.4-2.1,3.7c-0.1,0.2-0.1,0.4-0.2,0.6c0,0.1,0,0.2,0,0.2
		c0,0.6,0.2,1.2,0.7,1.7c0.9,0.9,2.3,0.9,3.2,0c0.4-0.4,0.7-1,0.7-1.6c0-0.1,0-0.2,0-0.3C111,56.5,111,56.4,110.9,56.4z"/>
</g>
<g>
	<path class="st2" d="M70.1,77h-4.5v31.6h-4.7L42.7,82.1v21.6h4.5v4.9H32.7v-4.9h4.5V77h-4.5v-4.9h10.1l17.3,25.5V77h-4.5v-4.9h14.5
		V77z"/>
	<path class="st2" d="M99.1,108.6H72.9v-4.9h4.5V77h-4.5v-4.9h26.2v11.6h-4.9V77H82.9v10.9h10.9v5H82.9v10.8h11.2v-6.7h4.9V108.6z"
		/>
	<path class="st2" d="M132,108.6h-7.9l-12.3-16.8v11.9h4.5v4.9h-14.5v-4.9h4.5V77h-4.5v-4.9h16c3.9,0,6.9,1,9.3,2.9
		c2.5,2.1,3.8,5,3.8,8.7c0,3.2-1,5.8-2.9,7.9c-1.8,1.9-4.2,3-7.1,3.4l6.4,8.7h4.6V108.6z M125.5,83.6c0-2.2-0.8-3.9-2.5-5.1
		c-1.5-1-3.4-1.6-5.8-1.6h-5.4v13.9h5.9c2,0,3.8-0.6,5.2-1.8C124.7,87.8,125.5,86,125.5,83.6z"/>
	<path class="st2" d="M170.3,90.4c0,5.2-1.9,9.5-5.8,13s-8.5,5.2-14,5.2h-15.4v-4.9h4.5V77h-4.5v-4.9h16.6c5.8,0,10.4,1.8,13.8,5.4
		C168.7,80.8,170.3,85.2,170.3,90.4z M164.9,90.2c0-3.9-1.3-7.1-3.8-9.6c-2.5-2.4-5.5-3.6-9.2-3.6h-6.7v26.7h5.9
		c3.9,0,7.2-1.3,9.9-3.9C163.6,97.2,164.9,94,164.9,90.2z"/>
</g>
</svg>
